<svg xmlns="http://www.w3.org/2000/svg" viewBox="0 0 1200 760" role="img" aria-label="SAA tunnel convergence monitoring diagram">
  <defs>
    <linearGradient id="bg" x1="0" x2="0" y1="0" y2="1">
      <stop offset="0" stop-color="#f7fbff"/>
      <stop offset="1" stop-color="#eef5fb"/>
    </linearGradient>
    <linearGradient id="lining" x1="0" x2="1" y1="0" y2="1">
      <stop offset="0" stop-color="#f5f7fa"/>
      <stop offset="1" stop-color="#cfd8e3"/>
    </linearGradient>
    <linearGradient id="inner" x1="0" x2="1" y1="0" y2="1">
      <stop offset="0" stop-color="#ffffff"/>
      <stop offset="1" stop-color="#e9f1f8"/>
    </linearGradient>
    <filter id="shadow" x="-20%" y="-20%" width="140%" height="140%">
      <feDropShadow dx="0" dy="16" stdDeviation="18" flood-color="#12314f" flood-opacity=".16"/>
    </filter>
    <marker id="arrowBlue" markerWidth="12" markerHeight="12" refX="10" refY="6" orient="auto">
      <path d="M2 2 L10 6 L2 10 Z" fill="#188bd6"/>
    </marker>
    <marker id="arrowOrange" markerWidth="12" markerHeight="12" refX="10" refY="6" orient="auto">
      <path d="M2 2 L10 6 L2 10 Z" fill="#f27722"/>
    </marker>
  </defs>

  <rect width="1200" height="760" fill="url(#bg)"/>
  <g opacity=".42" stroke="#d5e2ed" stroke-width="1">
    <path d="M0 628H1200M0 574H1200M0 520H1200M0 466H1200M0 412H1200M0 358H1200M0 304H1200M0 250H1200"/>
    <path d="M120 0V760M240 0V760M360 0V760M480 0V760M600 0V760M720 0V760M840 0V760M960 0V760M1080 0V760"/>
  </g>

  <g filter="url(#shadow)">
    <path d="M238 640 L238 358 C238 177 390 76 600 76 C810 76 962 177 962 358 L962 640 Z"
          fill="url(#lining)" stroke="#627383" stroke-width="18" stroke-linejoin="round"/>
    <path d="M300 620 L300 370 C300 227 428 141 600 141 C772 141 900 227 900 370 L900 620 Z"
          fill="url(#inner)" stroke="#aebdca" stroke-width="8" stroke-linejoin="round"/>
    <path d="M342 604 L342 386 C342 264 450 193 600 193 C750 193 858 264 858 386 L858 604 Z"
          fill="#f9fcff" stroke="#d2dde7" stroke-width="3"/>
  </g>

  <g fill="none" stroke-linecap="round">
    <path d="M386 572 C372 454 385 330 472 252 C539 192 658 183 735 234 C826 295 850 414 814 545"
          stroke="#f27722" stroke-width="10"/>
    <path d="M386 572 C372 454 385 330 472 252 C539 192 658 183 735 234 C826 295 850 414 814 545"
          stroke="#ffb36b" stroke-width="3"/>
  </g>

  <g transform="translate(0 0)">
    <g fill="#253241" stroke="#ffffff" stroke-width="2">
      <rect x="374" y="532" width="34" height="16" rx="5" transform="rotate(-82 391 540)"/>
      <rect x="373" y="475" width="34" height="16" rx="5" transform="rotate(-90 390 483)"/>
      <rect x="380" y="414" width="34" height="16" rx="5" transform="rotate(-100 397 422)"/>
      <rect x="401" y="350" width="34" height="16" rx="5" transform="rotate(-119 418 358)"/>
      <rect x="442" y="291" width="34" height="16" rx="5" transform="rotate(-136 459 299)"/>
      <rect x="500" y="246" width="34" height="16" rx="5" transform="rotate(-154 517 254)"/>
      <rect x="569" y="226" width="34" height="16" rx="5" transform="rotate(178 586 234)"/>
      <rect x="642" y="234" width="34" height="16" rx="5" transform="rotate(157 659 242)"/>
      <rect x="706" y="266" width="34" height="16" rx="5" transform="rotate(137 723 274)"/>
      <rect x="754" y="320" width="34" height="16" rx="5" transform="rotate(118 771 328)"/>
      <rect x="786" y="386" width="34" height="16" rx="5" transform="rotate(101 803 394)"/>
      <rect x="797" y="457" width="34" height="16" rx="5" transform="rotate(91 814 465)"/>
      <rect x="790" y="522" width="34" height="16" rx="5" transform="rotate(81 807 530)"/>
    </g>
    <g fill="#ffffff" stroke="#8fa1b1" stroke-width="3">
      <circle cx="385" cy="558" r="9"/>
      <circle cx="384" cy="494" r="9"/>
      <circle cx="392" cy="432" r="9"/>
      <circle cx="415" cy="366" r="9"/>
      <circle cx="462" cy="307" r="9"/>
      <circle cx="526" cy="264" r="9"/>
      <circle cx="596" cy="247" r="9"/>
      <circle cx="665" cy="255" r="9"/>
      <circle cx="728" cy="292" r="9"/>
      <circle cx="773" cy="350" r="9"/>
      <circle cx="803" cy="417" r="9"/>
      <circle cx="812" cy="486" r="9"/>
      <circle cx="803" cy="548" r="9"/>
    </g>
  </g>

  <g stroke="#188bd6" stroke-width="5" stroke-linecap="round" stroke-dasharray="12 12" opacity=".92">
    <path d="M388 470 L812 470"/>
    <path d="M456 316 L744 316"/>
    <path d="M600 246 L600 592"/>
  </g>

  <g fill="#188bd6">
    <circle cx="388" cy="470" r="10"/>
    <circle cx="812" cy="470" r="10"/>
    <circle cx="456" cy="316" r="10"/>
    <circle cx="744" cy="316" r="10"/>
    <circle cx="600" cy="246" r="10"/>
    <circle cx="600" cy="592" r="10"/>
  </g>

  <g fill="none" stroke="#f27722" stroke-width="5" stroke-linecap="round" marker-end="url(#arrowOrange)">
    <path d="M202 424 C248 424 284 424 329 424"/>
    <path d="M998 424 C952 424 916 424 871 424"/>
    <path d="M510 690 C532 642 552 612 578 584"/>
    <path d="M690 690 C668 642 648 612 622 584"/>
  </g>

  <g>
    <rect x="944" y="548" width="118" height="86" rx="14" fill="#17324c" stroke="#315b7c" stroke-width="3"/>
    <rect x="962" y="566" width="82" height="24" rx="5" fill="#d9f2ff"/>
    <circle cx="976" cy="613" r="8" fill="#2fd17c"/>
    <circle cx="1004" cy="613" r="8" fill="#f2b84b"/>
    <circle cx="1032" cy="613" r="8" fill="#5aa7ff"/>
    <path d="M814 545 C878 560 915 577 944 591" fill="none" stroke="#f27722" stroke-width="5" stroke-linecap="round"/>
    <path d="M744 316 C838 338 916 394 986 548" fill="none" stroke="#188bd6" stroke-width="4" stroke-linecap="round" stroke-dasharray="10 10"/>
  </g>

  <g opacity=".35" fill="#8ea0ae">
    <rect x="338" y="616" width="520" height="18" rx="9"/>
    <rect x="386" y="650" width="430" height="12" rx="6"/>
  </g>
</svg>
